<svg xmlns="http://www.w3.org/2000/svg" viewBox="0 0 128 128" role="img" aria-label="TikTok">
  <rect width="128" height="128" rx="30" fill="#050505"/>
  <path d="M77 25c2 18 13 29 30 32v19c-11 0-21-3-30-10v24c0 22-16 36-36 36-16 0-29-11-29-27s12-28 30-28c4 0 8 1 11 2v20c-3-2-6-3-10-3-7 0-12 4-12 10s5 10 12 10c8 0 13-6 13-17V25h21z" fill="#fff"/>
  <path d="M52 73c-3-1-6-2-10-2-18 0-30 12-30 28 0 8 3 15 8 20-1-3-2-6-2-10 0-16 12-28 30-28 1 0 3 0 4 1V73z" fill="#25f4ee"/>
  <path d="M77 25c2 18 13 29 30 32v11c-16-3-30-13-36-29h-15V25h21z" fill="#fe2c55"/>
</svg>
